<svg width="300" height="300" viewBox="0 0 300 300" xmlns="http://www.w3.org/2000/svg"> 
   <!-- 最底层蓝色背景（与原字体颜色#2196F3一致） --> 
   <defs> 
     <!-- 背景渐变：仍使用#2196F3色系，保持与原字体色统一 --> 
     <linearGradient id="bgGrad" x1="0%" y1="0%" x2="100%" y2="100%"> 
       <stop offset="0%" stop-color="#2196F3" /> <!-- 与原字体颜色完全一致 --> 
       <stop offset="100%" stop-color="#1976D2" /> <!-- 同色系稍深，增强层次 --> 
     </linearGradient> 
     <!-- 铅笔相关渐变（保留原样式） --> 
     <linearGradient id="pencilBody" x1="0%" y1="0%" x2="100%" y2="0%"> 
       <stop offset="0%" stop-color="#FFD166" /> 
       <stop offset="50%" stop-color="#FFB347" /> 
       <stop offset="100%" stop-color="#FF9A3C" /> 
     </linearGradient> 
     <linearGradient id="pencilTip" x1="0%" y1="0%" x2="100%" y2="0%"> 
       <stop offset="0%" stop-color="#A0A0A0" /> 
       <stop offset="100%" stop-color="#606060" /> 
     </linearGradient> 
     <linearGradient id="pencilEraser" x1="0%" y1="0%" x2="100%" y2="0%"> 
       <stop offset="0%" stop-color="#FF6B6B" /> 
       <stop offset="100%" stop-color="#FF5252" /> 
     </linearGradient> 
     <pattern id="woodPattern" patternUnits="userSpaceOnUse" width="8" height="8"> 
       <path d="M0,0 L8,8" stroke="#D4A76A" stroke-width="1" opacity="0.3"/> 
       <path d="M8,0 L0,8" stroke="#D4A76A" stroke-width="1" opacity="0.3"/> 
     </pattern> 
   </defs> 
   <!-- 背景矩形：铺满画布，颜色与原字体色一致 --> 
   <rect x="0" y="0" width="300" height="300" fill="url(#bgGrad)" rx="15" ry="15"/> 
   
   <!-- 3x3宫格（填充色改为白色，确保数字与宫格对比清晰） --> 
   <g fill="#FFFFFF" stroke="#E3F2FD" stroke-width="3"> <!-- 边框用浅蓝，与背景呼应 --> 
     <rect x="0" y="0" width="100" height="100" rx="12" ry="12"/> 
     <rect x="100" y="0" width="100" height="100" rx="12" ry="12"/> 
     <rect x="200" y="0" width="100" height="100" rx="12" ry="12"/> 
     <rect x="0" y="100" width="100" height="100" rx="12" ry="12"/> 
     <rect x="100" y="100" width="100" height="100" rx="12" ry="12"/> 
     <rect x="200" y="100" width="100" height="100" rx="12" ry="12"/> 
     <rect x="0" y="200" width="100" height="100" rx="12" ry="12"/> 
     <rect x="100" y="200" width="100" height="100" rx="12" ry="12"/> 
     <rect x="200" y="200" width="100" height="100" rx="12" ry="12"/> 
   </g> 
   
   <!-- 宫格分隔线（用浅蓝细线条，与边框协调） --> 
   <g stroke="#E3F2FD" stroke-width="1"> 
     <line x1="100" y1="0" x2="100" y2="300"/> 
     <line x1="200" y1="0" x2="200" y2="300"/> 
     <line x1="0" y1="100" x2="300" y2="100"/> 
     <line x1="0" y1="200" x2="300" y2="200"/> 
   </g> 
   
   <!-- 字体颜色改回原颜色#2196F3 --> 
   <g font-family="Arial" font-size="56" font-weight="bold" text-anchor="middle" dominant-baseline="middle" fill="#2196F3"> 
     <text x="50" y="55">1</text> 
     <text x="150" y="55">2</text> 
     <text x="250" y="55">3</text> 
     <text x="50" y="155">4</text> 
     <text x="150" y="155">5</text> 
     <text x="250" y="155">6</text> 
     <text x="50" y="255">7</text> 
     <text x="150" y="255">8</text> 
     <text x="250" y="255">9</text> 
   </g> 
   
   <!-- 右高左低的铅笔（保留原结构和样式，对比清晰） --> 
   <g z-index="10" transform="rotate(-35, 150, 150)"> 
     <rect x="60" y="140" width="180" height="40" rx="4" fill="url(#pencilBody)" /> 
     <rect x="60" y="140" width="180" height="40" rx="4" fill="url(#woodPattern)" /> 
     <rect x="50" y="140" width="10" height="40" fill="url(#pencilEraser)" /> 
     <rect x="230" y="140" width="10" height="40" fill="#C0C0C0" /> 
     <path d="M60,140 L240,140 L240,145 L60,145 Z" fill="white" opacity="0.3" /> 
     <path d="M60,175 L240,175 L240,180 L60,180 Z" fill="white" opacity="0.2" /> 
     
     <g transform="rotate(180, 240, 160) translate(-38, 0)"> 
       <polygon points="240,160 280,140 280,180" fill="url(#pencilTip)" /> 
       <polygon points="240,160 270,150 270,170" fill="#333" /> 
     </g> 
   </g> 
 </svg>